<svg xmlns:inkscape="http://www.inkscape.org/namespaces/inkscape" xmlns:sodipodi="http://sodipodi.sourceforge.net/DTD/sodipodi-0.dtd" xmlns="http://www.w3.org/2000/svg" xmlns:svg="http://www.w3.org/2000/svg" version="1.1" id="svg19" sodipodi:docname="mbhslunch.svg" inkscape:version="1.1 (c4e8f9e, 2021-05-24)" viewBox="53.33 41 135 148">  <defs id="defs23"></defs>  <sodipodi:namedview id="namedview21" bordercolor="#E53E3E" borderopacity="1.0" inkscape:pageshadow="2" inkscape:pageopacity="0.0" inkscape:pagecheckerboard="0" showgrid="false" inkscape:zoom="1.6941498" inkscape:cx="67.585524" inkscape:cy="118.05332" inkscape:window-width="1312" inkscape:window-height="786" inkscape:window-x="0" inkscape:window-y="25" inkscape:window-maximized="0" inkscape:current-layer="g17"></sodipodi:namedview>  <g id="g17">    <title id="title9">Layer 1</title>    <path id="svg_2" fill="#E53E3E" d="m70.33334,41l0,9l0,2l0.0278,2l0.0555,1l0.3056,2l0.2222,1l0.1945,1l0.3888,2l0.1945,1l0.4722,2l0.2778,1l0.4722,2l0.3889,2l0.4167,2l0.5833,2l0.3333,1l0.6945,2l0.3611,1l0.8333,2l0.4445,1l0.25,1l0.2222,1l0,1l-0.0278,1l-0.3333,2l-0.25,1l-0.3611,1l-0.7223,2l-0.5833,1.9444l-0.25,1l-0.6111,2.0556l-1.5,-0.6944l-0.5556,-0.3612l-1.9444,-1.1111l-1,-0.5833l-2,-1.0278l-1,-0.4444l-1,-0.5556l-1,-0.4444l-1,-0.5556l-1,-0.4444l-1,-0.5556l-1,-0.4444l-1,-0.5278l-1.9444,-0.7778l-1.5556,-0.3889l-1.5,-0.0833l-0.25,1.5l-0.3611,1.5556l-0.3056,1.9444l-0.0555,1l-0.0278,2l0,2l0,3l0,3l0,1l0.0278,2l0.0555,1l0.3056,2l0.2222,1l0.3056,2l0.0555,1l0.0556,1l0.1944,2l0.1945,1l0.5833,2l0.3333,1l0.6667,2l0.6667,2l0.3611,1l0.3611,1l0.4444,1l0.4445,1l1.1944,2l1.5834,2l0.8888,1l1.6389,2l0.6945,1l0.6111,1l0.8333,2l0.4722,2l0.2223,1l0.6111,2l0.8055,2l0.4167,1l0.5278,1l0.4722,1l1.1389,2l1.3055,2l0.7223,1l1.6666,1.972l0.9445,0.945l1.9722,1.666l1,0.723l2,1.305l1,0.583l2,1.195l2,1.222l1,0.556l1,0.583l2,1l1,0.417l1,0.444l2,0.778l2,0.778l1,0.361l1,0.25l2,0.416l2,0.417l2,0.306l2,0.166l2,0.306l1,0.222l2,0.306l1,0.055l1.944,0.028l1,0l2.056,0l0.528,1.5l0.361,0.556l0.528,1l1.277,1.944l0.723,1l0.805,1l1.806,2l0.972,1l2,2l2,2l2,1.917l1.944,1.583l1.556,0.972l1.5,0.528l0,-2.056l0,-1l0,-0.944l0.083,-2l0.389,-2l0.389,-1l0.389,-1l0.5,-1l0.806,-2l0.277,-1l0.528,-2l0.417,-1.944l0.139,-0.556l0.083,-1.5l1.5,-0.083l0.556,-0.139l1,-0.195l0.944,-0.277l2,-0.639l2,-0.695l1,-0.361l1,-0.444l1,-0.417l1,-0.528l2,-1l1,-0.444l1,-0.556l1,-0.444l1,-0.556l1,-0.444l1,-0.556l1,-0.472l2,-1.139l2,-1.305l1,-0.723l2,-1.666l0.972,-0.945l1.778,-1.972l0.778,-1l1.222,-2l0.472,-1l0.528,-1l0.861,-2l0.695,-2l0.277,-1l0.334,-2l0.083,-2l0,-1l0,-2l0,-1l0.111,-2l0.583,-2l0.556,-1l1.361,-2l1.389,-2l1.333,-2l0.639,-1l0.639,-1l1.139,-2l0.472,-1l0.528,-1l0.417,-1l0.444,-1l0.778,-2l0.778,-2l0.389,-1l0.277,-1l0.556,-2l0.305,-1l0.306,-1l0.583,-2l0.334,-2l0.083,-2l0,-1l0,-2l0,-8l-2.056,0.0833l-1.944,0.3056l-2,0.4722l-1,0.2778l-1,0.25l-1,0.3055l-2,0.6389l-2,0.6945l-1,0.3611l-2,0.8611l-1,0.5l-1,0.4167l-1.944,0.8333l-0.556,0.1944l-1.5,0.8056l-0.611,-2.0556l-0.25,-1l-0.278,-0.9444l-0.472,-2l-0.195,-1l-0.416,-2l-0.25,-1l-0.334,-1l-0.416,-2l0.111,-1l0.778,-2l1.083,-2l0.5,-1l1.139,-2l1.222,-2l1.139,-2l0.472,-1l1,-2l0.528,-1l0.417,-1l0.444,-1l0.778,-2l0.805,-2l0.417,-1l0.695,-2l0.277,-1l0.223,-1l0.388,-2l0.195,-1l0.472,-2l0.278,-0.9444l0.25,-1l0.611,-2.0556l-1.25,0.3611l-0.417,0.3333l-0.777,0.5556l-1.639,1.3889l-0.945,0.75l-1.972,1.6667l-2,1.7222l-1,0.8055l-2,1.4167l-2,1.3333l-2,1.3334l-2,1.3055l-1,0.6389l-2,1.1389l-1,0.4722l-2,0.8889l-1,0.3333l-2,-0.0277l-2,-0.8334l-2,-1.1944l-2,-1.1389l-1,-0.4722l-1,-0.5278l-2,-0.8611l-1,-0.3611l-2,-0.6945l-1,-0.3333l-2,-0.5833l-1,-0.2223l-2,-0.3888l-1,-0.1945l-1,-0.2222l-2,-0.3056l-1,-0.0555l-2,-0.0278l-2,0l-2,0l-1,0.0278l-1,0.0555l-2,0.3056l-1,0.2222l-1,0.1667l-1,0.1666l-1,0.1112l-2,0.3611l-2,0.5833l-1,0.3056l-1,0.3055l-1,0.25l-2,0.5833l-2,0.75l-1,0.4167l-2,0.7778l-2,0.8611l-1,0.5l-2,0.6667l-2,-0.1389l-2,-1l-1,-0.6945l-2,-1.6666l-1,-0.9445l-2,-1.9722l-1.9722,-2l-0.9445,-1l-1.6944,-2l-0.75,-1l-1.5,-2l-0.75,-1l-1.3611,-2l-0.6389,-0.9722l-1.1667,-1.6945l-1,-0.9722l-1.2222,-0.3611z"></path>    <metadata stroke="null" id="metadata12">image/svg+xmlOpenclipartfork and spoon2006-12-26T00:00:00https://openclipart.org/detail/3609/-by--3609stuuf</metadata>    <path stroke="#ffffff" fill-rule="evenodd" stroke-width="0.726777px" fill="#ffffff" d="m 87.632038,141.2887 c 0,3.13333 -4.348174,3.13333 -4.348174,0 l 0.868654,-36.03089 c 0,-2.34989 -4.345723,-2.34989 -4.345723,-5.48233 l 0.434328,-18.799109 c 0,-1.176048 1.302982,-1.176048 1.302982,0 v 15.664453 c 0,1.567336 1.739759,1.567336 1.739759,0 V 80.976371 c 0,-1.176048 1.305432,-1.176048 1.305432,0 V 97.81687 c 0,1.56512 1.737309,1.56512 1.737309,0 V 80.976371 c 0,-1.176048 1.305433,-1.176048 1.305433,0 v 15.664453 c 0,1.567336 1.7373,1.567336 1.7373,0 V 80.976371 c 0,-1.176048 1.30544,-1.176048 1.30544,0 l 0.43432,18.799109 c 0,3.13244 -4.348166,3.13244 -4.348166,5.48233 z" id="svg_10"></path>    <path stroke="#ffffff" fill-rule="evenodd" stroke-width="0.726777px" fill="#ffffff" d="m 152.73513,139.5531 c 0,3.13245 4.34817,3.13245 4.34817,0 l -0.87111,-36.81565 c 0,-2.34989 2.60842,-3.13245 4.34818,-6.265335 2.60841,-4.699559 -0.43433,-13.707389 -2.60842,-15.665777 -2.17409,-1.958168 -3.91384,-1.958168 -6.08547,0 -2.17409,1.958388 -5.21683,10.966218 -2.60842,15.665777 1.73731,3.132895 4.34572,3.915445 4.34572,6.265335 z" id="svg_9"></path>    <text xml:space="preserve" text-anchor="start" font-family="'Noto Sans JP'" font-size="24px" id="svg_12" y="103.40163" x="119.81454" stroke-width="0" stroke="#ffffff" fill="#ffffff" style="font-size:32px;font-family:'Noto Sans JP';text-anchor:start;fill:#ffffff;stroke:#ffffff;stroke-width:0"><tspan id="tspan463" x="119.81454" y="103.40163" style="font-style:normal;font-variant:normal;font-weight:normal;font-stretch:normal;font-size:32px;font-family:'Libre Franklin';-inkscape-font-specification:'Libre Franklin, @wght=700';font-variant-ligatures:normal;font-variant-caps:normal;font-variant-numeric:normal;font-variant-east-asian:normal;font-variation-settings:'wght' 700;text-align:center;text-anchor:middle" sodipodi:role="line" rotate="0 0 0">MB</tspan><tspan id="tspan465" x="119.81454" y="143.71201" style="font-style:normal;font-variant:normal;font-weight:normal;font-stretch:normal;font-size:32px;font-family:'Libre Franklin';-inkscape-font-specification:'Libre Franklin, @wght=700';font-variant-ligatures:normal;font-variant-caps:normal;font-variant-numeric:normal;font-variant-east-asian:normal;font-variation-settings:'wght' 700;text-align:center;text-anchor:middle" sodipodi:role="line" rotate="0 0 0">HS</tspan></text>  </g></svg>
